<svg width="186.000000" height="53.000000" viewBox="0 0 186 53" fill="none" xmlns="http://www.w3.org/2000/svg" xmlns:xlink="http://www.w3.org/1999/xlink">
	<desc>
			Created with Pixso.
	</desc>
	<defs/>
	<rect id="Frame 225" width="186.000000" height="53.000000" fill="#FFFFFF" fill-opacity="0"/>
	<path id="Vector" d="M35.2375 7C38.3151 8.90446 42.0851 14.0318 43.3931 17.8408C44.9319 22.0892 43.47 26.2643 39.8539 29.3408C33.9296 34.3217 30.1597 37.7643 27.3898 40.914C25.2356 43.4044 22.5427 46.5541 22.7736 53C17.0801 46.4809 16.0029 36.4459 22.158 29.9268C28.7748 22.8949 30.0057 21.4299 32.4678 18.3535C34.7759 15.4236 35.6223 11.2484 35.2375 7Z" fill="#558EC0" fill-opacity="1.000000" fill-rule="evenodd"/>
	<path id="Vector" d="M9.5011 39C-6.48865 25.474 -2.12073 6.68787 21.2789 1.3526C23.7749 0.75145 24.8669 0.526016 26.1149 0C27.4409 2.63005 27.5969 4.65897 24.3209 6.83815C16.1311 12.1734 3.72925 19.4624 9.5011 39Z" fill="#558EC0" fill-opacity="1.000000" fill-rule="evenodd"/>
	<path id="Vector" d="M67.9182 42.3352C66.6091 42.8523 65.9546 43 63.991 43C56.2181 43 50 37.1648 50 30C50 22.8352 56.3 17 63.991 17C65.3 17 66.6091 17.1477 68 17.5909L68 24.017C66.7727 23.3523 65.5454 23.0568 63.991 23.0568C59.7363 23.0568 56.3 26.1591 56.3 30C56.3 33.8409 59.7363 36.9432 63.991 36.9432C65.7909 36.9432 66.6909 36.6477 67.8363 36.0568L67.9182 42.3352Z" fill="#053D5B" fill-opacity="1.000000" fill-rule="evenodd"/>
	<path id="Vector" d="M156 30C156 37.1648 149.921 43 142.5 43C135 43 129 37.1648 129 30C129 22.8352 135.079 17 142.5 17C149.921 17 156 22.8352 156 30ZM142.421 23.0568C138.316 23.0568 135 26.1591 135 30C135 33.8409 138.316 36.9432 142.421 36.9432C146.526 36.9432 149.842 33.8409 149.842 30C149.842 26.1591 146.526 23.0568 142.421 23.0568Z" fill="#053D5B" fill-opacity="1.000000" fill-rule="evenodd"/>
	<path id="Vector" d="M98.8906 42.9251L92 42.9251L92 27.0403C92 21.7205 96.6758 17 102.5 17C108.324 17 113 21.7205 113 27.0403L113 43L106.109 43L106.109 27.0403C106.109 24.7176 104.469 23.2939 102.418 23.2939C100.367 23.2939 98.7266 24.9424 98.7266 27.0403L98.8906 42.9251Z" fill="#053D5B" fill-opacity="1.000000" fill-rule="evenodd"/>
	<path id="Vector" d="M164.562 42.9251L158 42.9251L158 27.0403C158 21.7205 162.453 17 168 17C173.547 17 178 21.7205 178 27.0403L178 43L171.438 43L171.438 27.0403C171.438 24.7925 169.875 23.2939 167.922 23.2939C165.969 23.2939 164.406 24.9424 164.406 27.0403L164.562 42.9251Z" fill="#053D5B" fill-opacity="1.000000" fill-rule="evenodd"/>
	<path id="Vector" d="M76.5625 36.1816L76.5625 42.9251L70 42.9251L70 27.0403C70 21.7205 74.4531 17 80 17C85.5469 17 90 21.7205 90 27.0403L90 43L83.4375 43L83.4375 36.1066L76.5625 36.1066L76.5625 36.1816ZM83.5156 30.2623L83.5156 27.1153C83.5156 24.8674 81.9531 23.3689 80 23.3689C78.2031 23.3689 76.4844 25.0173 76.4844 27.1153L76.4844 30.3372L83.5156 30.3372L83.5156 30.2623Z" fill="#053D5B" fill-opacity="1.000000" fill-rule="evenodd"/>
	<path id="Vector" d="M124.195 26.5748L126.256 30.2062C129.823 36.2587 126.177 44.732 115 42.6893L115 36.7126C119.598 38.377 122.134 36.0317 120.152 32.3246C120.152 32.3246 118.726 29.828 117.616 27.9366C114.921 23.3972 118.329 15.6804 128 17.1935L128 23.3216C125.543 21.5815 122.293 23.3216 124.195 26.5748Z" fill="#053D5B" fill-opacity="1.000000" fill-rule="evenodd"/>
	<path id="Vector" d="M186 20.5C186 21.2353 185.647 21.8235 185.118 22.2647C184.588 22.7059 183.794 23 183 23C182.118 23 181.412 22.7059 180.882 22.2647C180.353 21.8235 180 21.1618 180 20.5C180 19.7647 180.353 19.1765 180.882 18.7353C181.412 18.2941 182.206 18 183 18C183.794 18 184.588 18.2941 185.118 18.7353C185.647 19.1765 186 19.7647 186 20.5ZM184.853 22.1176C185.382 21.6765 185.647 21.1618 185.647 20.5C185.647 19.9118 185.382 19.3235 184.853 18.8824C184.324 18.4412 183.706 18.2206 182.912 18.2206C182.118 18.2206 181.5 18.4412 180.971 18.8824C180.441 19.3235 180.176 19.8382 180.176 20.5C180.176 21.1618 180.441 21.6765 180.971 22.1176C181.5 22.5588 182.118 22.7794 182.912 22.7794C183.706 22.7794 184.324 22.4853 184.853 22.1176Z" fill="#053D5B" fill-opacity="1.000000" fill-rule="nonzero"/>
	<path id="Vector" d="M182.471 19.3947L183.118 19.3947C183.353 19.3947 183.529 19.4737 183.529 19.8684C183.529 20.1842 183.412 20.3421 183.118 20.3421L182.471 20.3421L182.471 19.3947ZM182.059 22L182.471 22L182.471 20.7368L183.059 20.7368C183.412 20.7368 183.529 20.9737 183.529 21.5263C183.529 21.6842 183.529 21.8421 183.588 22L184 22C183.941 21.8421 183.882 21.5263 183.882 21.2105C183.882 20.7368 183.706 20.5789 183.529 20.5789C183.588 20.5789 183.882 20.4211 183.882 19.7895C183.882 19.2368 183.647 19 183.118 19L182 19L182 22L182.059 22Z" fill="#053D5B" fill-opacity="1.000000" fill-rule="evenodd"/>
</svg>
