<svg width="130.004028" height="23.062500" viewBox="0 0 130.004 23.0625" fill="none" xmlns="http://www.w3.org/2000/svg" xmlns:xlink="http://www.w3.org/1999/xlink">
	<desc>
			Created with Pixso.
	</desc>
	<defs/>
	<path id="Подробнее" d="M12.5098 19L10.625 19L10.625 6.32422L3.61328 6.32422L3.61328 19L1.73828 19L1.73828 4.78125L12.5098 4.78125L12.5098 19ZM15.1562 13.6191Q15.1562 12.0664 15.7666 10.8262Q16.377 9.58594 17.4658 8.91211Q18.5547 8.23828 19.9512 8.23828Q22.1094 8.23828 23.4424 9.73242Q24.7754 11.2266 24.7754 13.707L24.7754 13.834Q24.7754 15.377 24.1846 16.6025Q23.5938 17.8281 22.4951 18.5117Q21.3965 19.1953 19.9707 19.1953Q17.8223 19.1953 16.4893 17.7012Q15.1562 16.207 15.1562 13.7461L15.1562 13.6191ZM16.9727 13.834Q16.9727 15.5918 17.7881 16.6562Q18.6035 17.7207 19.9707 17.7207Q21.3477 17.7207 22.1582 16.6416Q22.9688 15.5625 22.9688 13.6191Q22.9688 11.8809 22.1436 10.8018Q21.3184 9.72266 19.9512 9.72266Q18.6133 9.72266 17.793 10.7871Q16.9727 11.8516 16.9727 13.834ZM26.25 17.5254L26.875 16.7539Q27.9297 15.3867 28.0762 12.6523L28.2422 8.43359L35.0488 8.43359L35.0488 17.5254L36.4062 17.5254L36.4062 22.1055L34.5996 22.1055L34.5996 19L27.2266 19L27.2266 22.1055L25.4199 22.1055L25.4297 17.5254L26.25 17.5254ZM28.3887 17.5254L33.2422 17.5254L33.2422 10.1035L29.9902 10.1035L29.8828 12.623Q29.7168 15.7773 28.3887 17.5254ZM47.334 13.834Q47.334 16.2461 46.2305 17.7207Q45.127 19.1953 43.2422 19.1953Q41.3184 19.1953 40.2148 17.9746L40.2148 23.0625L38.4082 23.0625L38.4082 8.43359L40.0586 8.43359L40.1465 9.60547Q41.25 8.23828 43.2129 8.23828Q45.1172 8.23828 46.2256 9.67383Q47.334 11.1094 47.334 13.668L47.334 13.834ZM45.5273 13.6289Q45.5273 11.8418 44.7656 10.8066Q44.0039 9.77148 42.6758 9.77148Q41.0352 9.77148 40.2148 11.2266L40.2148 16.2754Q41.0254 17.7207 42.6953 17.7207Q43.9941 17.7207 44.7607 16.6904Q45.5273 15.6602 45.5273 13.6289ZM49.1504 13.6191Q49.1504 12.0664 49.7607 10.8262Q50.3711 9.58594 51.46 8.91211Q52.5488 8.23828 53.9453 8.23828Q56.1035 8.23828 57.4365 9.73242Q58.7695 11.2266 58.7695 13.707L58.7695 13.834Q58.7695 15.377 58.1787 16.6025Q57.5879 17.8281 56.4893 18.5117Q55.3906 19.1953 53.9648 19.1953Q51.8164 19.1953 50.4834 17.7012Q49.1504 16.207 49.1504 13.7461L49.1504 13.6191ZM50.9668 13.834Q50.9668 15.5918 51.7822 16.6562Q52.5977 17.7207 53.9648 17.7207Q55.3418 17.7207 56.1523 16.6416Q56.9629 15.5625 56.9629 13.6191Q56.9629 11.8809 56.1377 10.8018Q55.3125 9.72266 53.9453 9.72266Q52.6074 9.72266 51.7871 10.7871Q50.9668 11.8516 50.9668 13.834ZM65.6738 9.03906Q67.666 9.03906 68.8623 10.3721Q70.0586 11.7051 70.0586 13.8828L70.0586 14.0488Q70.0586 15.543 69.4824 16.7197Q68.9062 17.8965 67.8271 18.5459Q66.748 19.1953 65.3418 19.1953Q63.2129 19.1953 61.9141 17.7744Q60.6152 16.3535 60.6152 13.9609L60.6152 13.082Q60.6152 9.75195 61.8506 7.78906Q63.0859 5.82617 65.498 5.39648Q66.8652 5.15234 67.3438 4.80078Q67.8223 4.44922 67.8223 3.83398L69.3066 3.83398Q69.3066 5.05469 68.7549 5.73828Q68.2031 6.42188 66.9922 6.70508L65.6445 7.00781Q64.0332 7.38867 63.2275 8.29199Q62.4219 9.19531 62.1777 10.6992Q63.6133 9.03906 65.6738 9.03906ZM65.3223 10.5234Q63.9941 10.5234 63.2129 11.417Q62.4316 12.3105 62.4316 13.8926L62.4316 14.0488Q62.4316 15.748 63.2178 16.7393Q64.0039 17.7305 65.3418 17.7305Q66.6895 17.7305 67.4707 16.7344Q68.252 15.7383 68.252 13.8242Q68.252 12.3301 67.4658 11.4268Q66.6797 10.5234 65.3223 10.5234ZM80.5566 19L78.75 19L78.75 14.4883L73.8965 14.4883L73.8965 19L72.0801 19L72.0801 8.43359L73.8965 8.43359L73.8965 13.0137L78.75 13.0137L78.75 8.43359L80.5566 8.43359L80.5566 19ZM87.8418 19.1953Q85.6934 19.1953 84.3457 17.7842Q82.998 16.373 82.998 14.0098L82.998 13.6777Q82.998 12.1055 83.5986 10.8701Q84.1992 9.63477 85.2783 8.93652Q86.3574 8.23828 87.6172 8.23828Q89.6777 8.23828 90.8203 9.5957Q91.9629 10.9531 91.9629 13.4824L91.9629 14.2344L84.8047 14.2344Q84.8438 15.7969 85.7178 16.7588Q86.5918 17.7207 87.9395 17.7207Q88.8965 17.7207 89.5605 17.3301Q90.2246 16.9395 90.7227 16.2949L91.8262 17.1543Q90.498 19.1953 87.8418 19.1953ZM87.6172 9.72266Q86.5234 9.72266 85.7812 10.5186Q85.0391 11.3145 84.8633 12.75L90.1562 12.75L90.1562 12.6133Q90.0781 11.2363 89.4141 10.4795Q88.75 9.72266 87.6172 9.72266ZM98.4375 19.1953Q96.2891 19.1953 94.9414 17.7842Q93.5938 16.373 93.5938 14.0098L93.5938 13.6777Q93.5938 12.1055 94.1943 10.8701Q94.7949 9.63477 95.874 8.93652Q96.9531 8.23828 98.2129 8.23828Q100.273 8.23828 101.416 9.5957Q102.559 10.9531 102.559 13.4824L102.559 14.2344L95.4004 14.2344Q95.4395 15.7969 96.3135 16.7588Q97.1875 17.7207 98.5352 17.7207Q99.4922 17.7207 100.156 17.3301Q100.82 16.9395 101.318 16.2949L102.422 17.1543Q101.094 19.1953 98.4375 19.1953ZM98.2129 9.72266Q97.1191 9.72266 96.377 10.5186Q95.6348 11.3145 95.459 12.75L100.752 12.75L100.752 12.6133Q100.674 11.2363 100.01 10.4795Q99.3457 9.72266 98.2129 9.72266Z" fill="#7875FE" fill-opacity="1.000000" fill-rule="evenodd"/>
	<path id="Arrow 1" d="M109 10.5L129 10.5L129 12.5L109 12.5L109 10.5ZM127.586 11.5L122.636 6.55025C122.24 6.15427 122.24 5.53202 122.636 5.13604C123.032 4.74006 123.654 4.74006 124.05 5.13604L129.707 10.7929C130.103 11.1889 130.103 11.8111 129.707 12.2071L124.05 17.864C123.654 18.2599 123.032 18.2599 122.636 17.864C122.24 17.468 122.24 16.8457 122.636 16.4497L127.586 11.5Z" fill="#7875FE" fill-opacity="1.000000" fill-rule="evenodd"/>
</svg>
