<svg width="209.000000" height="26.000000" viewBox="0 0 209 26" fill="none" xmlns="http://www.w3.org/2000/svg" xmlns:xlink="http://www.w3.org/1999/xlink">
	<desc>
			Created with Pixso.
	</desc>
	<defs>
		<clipPath id="clip1_581">
			<rect id="Frame" width="209.000000" height="26.000000" fill="white" fill-opacity="0"/>
		</clipPath>
	</defs>
	<g clip-path="url(#clip1_581)">
		<path id="Vector" d="M126.093 25.9242L123.835 25.9242L123.835 0.0757904L126.093 0.0757904L126.093 25.9242ZM179.734 0.0757904L179.734 21.7426L159.572 0.0757904L159.572 0L157.239 0L157.239 25.9242L159.572 25.9242L159.572 4.02888L179.734 25.9242L179.734 25.8473L179.734 25.9242L182.066 25.9242L182.066 0.0757904L179.734 0.0757904ZM152.123 0.0757904L152.123 0.151566L128.198 25.8473L131.658 25.8473L152.123 3.26881L152.123 18.2442L142.042 18.2442L142.042 20.6014L152.123 20.6014L152.123 25.8473L154.378 25.8473L154.378 0.0757904L152.123 0.0757904Z" fill="#000000" fill-opacity="1.000000" fill-rule="evenodd"/>
		<path id="Vector" d="M123.835 25.9242L123.835 0.0757904L126.093 0.0757904L126.093 25.9242L123.835 25.9242ZM179.734 21.7426L159.572 0.0757904L159.572 0L157.239 0L157.239 25.9242L159.572 25.9242L159.572 4.02888L179.734 25.9242L182.066 25.9242L182.066 0.0757904L179.734 0.0757904L179.734 21.7426ZM179.734 25.9242L179.734 25.8473L179.734 25.9242M152.123 0.151566L128.198 25.8473L131.658 25.8473L152.123 3.26881L152.123 18.2442L142.042 18.2442L142.042 20.6014L152.123 20.6014L152.123 25.8473L154.378 25.8473L154.378 0.0757904L152.123 0.0757904L152.123 0.151566Z" stroke="#000000" stroke-opacity="1.000000" stroke-width="0.000000"/>
		<path id="Vector" d="M114.206 14.1384L114.356 14.1384C118.118 14.1384 121.201 10.7181 121.201 6.91765C121.201 3.2688 118.342 0.227356 114.805 0.0757904L114.805 0L114.43 0L95.9239 0L95.9239 25.9242L98.2565 25.9242L98.2565 2.35715L114.656 2.35715C115.763 2.50308 116.779 3.04688 117.513 3.88664C118.247 4.72639 118.649 5.80446 118.644 6.91876C118.644 9.35168 116.763 11.7077 114.28 11.8604L111.121 11.8604L111.121 14.4449L111.195 14.4449L117.891 25.8484L121.579 25.8484L114.206 14.1384ZM81.0271 0L68.464 0.0757904L68.464 25.923L87.3467 25.923C90.9572 25.6946 93.7411 22.6531 93.7411 19.0032C93.7411 16.4956 92.462 14.3669 90.5059 13.1499C92.4608 11.9351 93.7411 9.42636 93.7411 6.91765C93.7411 3.2688 90.9572 0.303146 87.4215 0.0757904L87.4215 0L81.0271 0ZM81.0271 23.5659L70.7954 23.5659L70.7954 2.35715L87.2707 2.35715C88.3779 2.5031 89.3937 3.04694 90.1277 3.88673C90.8618 4.72652 91.2635 5.80457 91.2577 6.91876C91.2577 9.42747 89.2268 11.7835 86.7434 11.8604L86.7434 14.4427C89.2256 14.4427 91.2577 16.4956 91.2577 19.0032C91.2577 21.3603 89.4525 23.2605 87.1959 23.5659L81.0271 23.5659Z" fill="#000000" fill-opacity="1.000000" fill-rule="evenodd"/>
		<path id="Vector" d="M0 0L0 25.8472L2.33252 25.8472L22.796 3.8773L22.796 18.2442L12.8647 18.2442L12.8647 20.6013L22.796 20.6013L22.796 25.8472L25.0537 25.8472L25.0537 0L0 0ZM2.33252 22.3499L2.33252 13.5321L10.6082 13.5321L2.33252 22.3499ZM2.33252 11.175L2.33252 2.35603L21.1404 2.35603L12.8647 11.175L2.33252 11.175Z" fill="#00ACEC" fill-opacity="1.000000" fill-rule="evenodd"/>
		<path id="Vector" d="M196.21 0C189.139 0 183.345 5.77753 183.345 12.9247C183.345 20.0686 189.139 25.9242 196.21 25.9242C203.281 25.9242 209 20.0686 209 12.9247C209 5.77753 203.281 0 196.21 0ZM196.21 23.1859C190.642 23.1859 186.204 18.6254 186.204 13.0763C186.204 7.45038 190.642 2.96567 196.21 2.96567C201.702 2.96567 206.216 7.45038 206.216 13.0763C206.216 18.6254 201.702 23.1859 196.21 23.1859Z" fill="#000000" fill-opacity="1.000000" fill-rule="evenodd"/>
		<path id="Vector" d="M58.7581 2.50862L58.7581 0.151474L33.5547 0.151474L33.5547 25.9241L35.8124 25.9241L35.8124 14.0625L50.66 14.0625L39.7234 25.8472L43.1843 25.8472L63.5729 3.26871L63.5729 18.2441L53.5668 18.2441L53.5668 20.6013L63.5729 20.6013L63.7225 25.9998L66.0551 25.9998L65.9054 0.0756836L63.5729 0.0756836L63.5729 0.151474L52.8474 11.7065L35.8124 11.7065L35.8124 2.50862L58.7581 2.50862Z" fill="#000000" fill-opacity="1.000000" fill-rule="evenodd"/>
		<path id="Vector" d="M58.7581 0.151474L33.5547 0.151474L33.5547 25.9241L35.8124 25.9241L35.8124 14.0625L50.66 14.0625L39.7234 25.8472L43.1843 25.8472L63.5729 3.26871L63.5729 18.2441L53.5668 18.2441L53.5668 20.6013L63.5729 20.6013L63.7225 25.9998L66.0551 25.9998L65.9054 0.0756836L63.5729 0.0756836L63.5729 0.151474L52.8474 11.7065L35.8124 11.7065L35.8124 2.50862L58.7581 2.50862L58.7581 0.151474Z" stroke="#000000" stroke-opacity="1.000000" stroke-width="0.000000"/>
	</g>
</svg>
