<svg width="24.000000" height="24.000000" viewBox="0 0 24 24" fill="none" xmlns="http://www.w3.org/2000/svg" xmlns:xlink="http://www.w3.org/1999/xlink">
	<desc>
			Created with Pixso.
	</desc>
	<defs>
		<clipPath id="clip1_465">
			<rect id="Frame" width="24.000000" height="24.000000" fill="white" fill-opacity="0"/>
		</clipPath>
	</defs>
	<rect id="Frame" width="24.000000" height="24.000000" fill="#2E2B44" fill-opacity="0"/>
	<g clip-path="url(#clip1_465)">
		<path id="Vector" d="M15.402 21L15.402 14.034L17.735 14.034L18.084 11.326L15.402 11.326L15.402 9.59802C15.402 8.81403 15.62 8.27899 16.744 8.27899L18.178 8.27899L18.178 5.85699C17.4838 5.78333 16.7861 5.74762 16.088 5.75C14.021 5.75 12.606 7.01202 12.606 9.33002L12.606 11.326L10.268 11.326L10.268 14.034L12.606 14.034L12.606 21L4 21C3.7348 21 3.48041 20.8947 3.29291 20.7071C3.10535 20.5196 3 20.2652 3 20L3 4C3 3.7348 3.10535 3.48041 3.29291 3.29291C3.48041 3.10535 3.7348 3 4 3L20 3C20.2652 3 20.5196 3.10535 20.7071 3.29291C20.8947 3.48041 21 3.7348 21 4L21 20C21 20.2652 20.8947 20.5196 20.7071 20.7071C20.5196 20.8947 20.2652 21 20 21L15.402 21Z" fill="#FFFFFF" fill-opacity="1.000000" fill-rule="nonzero"/>
	</g>
</svg>
