<svg width="197.000000" height="55.000000" viewBox="0 0 197 55" fill="none" xmlns="http://www.w3.org/2000/svg" xmlns:xlink="http://www.w3.org/1999/xlink">
	<desc>
			Created with Pixso.
	</desc>
	<defs>
		<clipPath id="clip1_577">
			<rect id="hahnemuehle-logo-vector 1" width="197.000000" height="55.000000" fill="white" fill-opacity="0"/>
		</clipPath>
	</defs>
	<rect id="hahnemuehle-logo-vector 1" width="197.000000" height="55.000000" fill="#FFFFFF" fill-opacity="0"/>
	<g clip-path="url(#clip1_577)">
		<path id="Vector" d="M62.5745 48.9001L62.5745 29.5334L60.1161 29.5334L60.1161 37.8668L51.6919 37.8668L51.6919 29.5334L49.2335 29.5334L49.2335 48.9001L51.6919 48.9001L51.6919 40.1334L60.1488 40.1334L60.1488 48.9001L62.5745 48.9001ZM77.1937 39.0334C77.1937 36.0001 75.8826 34.4334 71.8837 34.4334C70.3757 34.4334 68.6057 34.6668 67.3274 35.0668L67.5568 37.0334C68.6713 36.8001 70.4086 36.5668 71.7197 36.5668C73.9814 36.5668 74.7354 37.2001 74.7354 38.9668L74.7354 41.1668L71.0641 41.1668C68.2451 41.1668 66.8029 42.2334 66.8029 45.1668C66.8029 47.6668 67.9174 49.2334 70.507 49.2334C72.1786 49.2334 73.7848 48.7668 75.0304 47.9001L75.1942 48.9668L77.2266 48.9668L77.1937 39.0334ZM74.7681 45.9668C73.6864 46.6668 72.3752 47.1334 71.1625 47.1334C69.458 47.1334 69.1958 46.5334 69.1958 45.1001C69.1958 43.6668 69.7531 43.2001 71.228 43.2001L74.7681 43.2001L74.7681 45.9668ZM92.2064 48.9001L92.2064 38.0334C92.2064 35.8668 91.4197 34.4334 89.1908 34.4334C87.5846 34.4334 85.3557 35.1334 83.8151 35.9334L83.8151 28.6334L81.4222 28.9668L81.4222 48.9334L83.8151 48.9334L83.8151 38.2668C85.3229 37.5001 87.4535 36.8001 88.4696 36.8001C89.3546 36.8001 89.8136 37.1668 89.8136 38.1001L89.8136 48.9334L92.2064 48.9334L92.2064 48.9001ZM107.448 48.9001L107.448 38.0334C107.448 35.8668 106.662 34.4334 104.433 34.4334C102.794 34.4334 100.368 35.1668 98.8278 35.9668L98.5983 34.7668L96.6315 34.7668L96.6315 48.9334L99.0244 48.9334L99.0244 38.2334C100.532 37.4668 102.663 36.8001 103.679 36.8001C104.564 36.8001 105.023 37.1668 105.023 38.1001L105.023 48.9334L107.448 48.9334L107.448 48.9001ZM113.578 43.9668L113.578 42.8001L121.871 42.8001L121.871 39.8334C121.871 36.9001 120.757 34.4668 116.627 34.4668C112.496 34.4668 111.185 36.8334 111.185 39.7668L111.185 44.0001C111.185 47.2001 112.595 49.2001 116.692 49.2001C118.429 49.2001 120.298 48.9001 121.609 48.4001L121.314 46.4334C119.773 46.8334 118.298 47.1001 116.922 47.1001C114.201 47.1001 113.578 46.2001 113.578 43.9668ZM113.578 39.5668C113.578 37.5668 114.365 36.5001 116.627 36.5001C118.888 36.5001 119.544 37.6334 119.544 39.5668L119.544 40.7334L113.578 40.7334L113.578 39.5668ZM144.882 48.9001L144.882 38.0334C144.882 35.8668 144.095 34.4334 141.866 34.4334C140.129 34.4334 137.769 35.1334 136.097 35.9668C135.704 35.0001 134.884 34.4334 133.442 34.4334C131.803 34.4334 129.377 35.1668 127.837 35.9668L127.607 34.7668L125.641 34.7668L125.641 48.9334L128.034 48.9334L128.034 38.2334C129.541 37.4668 131.672 36.8001 132.688 36.8001C133.573 36.8001 134.032 37.1668 134.032 38.1001L134.032 48.9334L136.425 48.9334L136.425 38.2334C137.933 37.4668 139.932 36.8001 141.079 36.8001C141.964 36.8001 142.423 37.1668 142.423 38.1001L142.423 48.9334L144.882 48.9334L144.882 48.9001ZM149.176 34.7668L149.176 45.6334C149.176 47.8001 149.963 49.2334 152.191 49.2334C153.83 49.2334 156.256 48.5001 157.797 47.7001L158.026 48.9001L159.993 48.9001L159.993 34.7334L157.6 34.7334L157.6 45.4334C156.092 46.2001 153.961 46.8668 152.945 46.8668C152.06 46.8668 151.601 46.5001 151.601 45.5668L151.601 34.7334L149.176 34.7668ZM151.11 32.6001L153.339 32.6001L153.339 30.1668L151.11 30.1668L151.11 32.6001ZM156.059 32.6001L158.288 32.6001L158.288 30.1668L156.059 30.1668L156.059 32.6001ZM175.366 48.9001L175.366 38.0334C175.366 35.8668 174.579 34.4334 172.35 34.4334C170.744 34.4334 168.515 35.1334 166.975 35.9334L166.975 28.6334L164.582 28.9668L164.582 48.9334L166.975 48.9334L166.975 38.2668C168.482 37.5001 170.613 36.8001 171.629 36.8001C172.514 36.8001 172.973 37.1668 172.973 38.1001L172.973 48.9334L175.366 48.9334L175.366 48.9001ZM182.217 48.9001L182.217 28.6001L179.824 28.9334L179.824 48.9001L182.217 48.9001ZM188.445 43.9668L188.445 42.8001L196.738 42.8001L196.738 39.8334C196.738 36.9001 195.623 34.4668 191.493 34.4668C187.363 34.4668 186.052 36.8334 186.052 39.7668L186.052 44.0001C186.052 47.2001 187.461 49.2001 191.559 49.2001C193.296 49.2001 195.164 48.9001 196.475 48.4001L196.18 46.4334C194.64 46.8334 193.165 47.1001 191.788 47.1001C189.068 47.1001 188.445 46.2001 188.445 43.9668ZM188.445 39.5668C188.445 37.5668 189.231 36.5001 191.493 36.5001C193.755 36.5001 194.41 37.6334 194.41 39.5668L194.41 40.7334L188.445 40.7334L188.445 39.5668Z" fill="#6F7072" fill-opacity="1.000000" fill-rule="nonzero"/>
		<path id="Vector" d="M38.5477 22.0331C38.3184 19.4332 37.2039 17.1331 35.3682 15.6331C33.7292 14.2665 31.6315 13.5998 29.5991 13.8665C27.108 14.1331 25.0757 16.0665 23.7974 17.6331C22.3551 19.3665 21.3717 21.2665 20.8473 22.6331C19.5688 21.4998 18.7494 20.1665 18.3561 18.5331C18.0283 17.1331 17.6677 14.3665 17.4055 12.3665C17.2089 11.0331 17.1105 9.96648 17.0122 9.59981C16.7499 8.36647 15.9304 6.26648 15.406 5.16647C16.5532 4.93314 17.4382 4.63313 18.2905 3.7998C19.1428 2.93314 20.5194 1.59981 20.5522 1.59981L21.3717 0.799805L20.2245 0.699814C19.995 0.666473 14.1604 0.233139 13.177 0.266479C12.4886 0.299805 11.6365 0.666473 10.9481 1.33315C10.3909 1.83315 9.66968 2.69981 9.14526 4.09981C8.62085 4.19981 3.86792 5.13313 3.86792 5.13313L3.86792 6.16647L4.26123 6.26648C5.73633 6.59981 7.60461 7.39981 8.71912 8.23314L8.65356 8.26648C7.703 8.89981 6.42468 9.76648 5.3429 10.7665C3.96619 12.0331 3.31067 13.1665 3.40894 14.1665C3.47449 14.8665 3.76953 15.3998 4.26123 15.7665C4.65454 16.0331 5.14624 16.1665 5.70349 16.1665C5.04797 17.3331 4.68738 18.2331 4.42517 19.0998C4.09729 20.2998 3.96619 21.4998 4.13013 22.9998C4.32678 25.2998 5.474 27.5998 6.78516 29.5998L0 29.5998L0 45.5665C0 46.9998 0.295044 48.3665 0.917847 49.5665C1.4751 50.6998 2.26172 51.6665 3.24512 52.4998C5.01514 53.9665 7.37524 54.8331 9.57141 54.8331C11.7676 54.8331 14.1276 53.9665 15.8977 52.4998C16.881 51.6998 17.6677 50.6998 18.225 49.5665C18.7822 48.4665 19.0771 47.2665 19.1428 45.9998C19.2739 43.8665 19.995 40.6998 21.1095 38.2332C22.3551 35.4332 24.0267 33.9665 26.1573 33.7665C27.3047 33.6665 28.4519 33.8331 29.4353 34.2998C30.2548 34.6665 31.0414 35.2331 31.6642 35.9331C32.8115 37.1665 33.3688 38.5665 33.4343 38.8665L33.4343 38.8331L33.8276 40.1331L34.3849 38.9998C35.2699 37.1331 36.5155 34.1998 37.4332 30.7665C38.4495 27.4998 38.7772 24.5331 38.5477 22.0331ZM7.5719 30.5665L7.80139 30.8665C8.52246 31.8331 9.27637 32.6665 9.89917 33.3331L11.3086 34.8665C13.5704 37.2665 15.3405 39.1665 16.1599 40.5665C17.2089 42.3665 17.9628 44.1331 18.225 45.4665C18.2577 45.5998 18.2905 45.8665 18.2905 45.9665C18.1594 48.8331 16.6843 50.6331 15.406 51.6998C13.7998 53.0331 11.6692 53.8331 9.70251 53.8331C7.703 53.8331 5.6051 53.0665 3.99902 51.6998C2.68787 50.5998 1.1145 48.6331 1.1145 45.5665L1.1145 30.6331L7.5719 30.5665ZM9.27637 9.06647L9.50586 8.89981C9.66968 9.13315 9.76807 9.33315 9.76807 9.56647C9.83362 10.3665 9.11243 11.2331 8.22742 12.3665C7.63745 13.0998 6.98181 13.9665 6.32629 14.9665C5.70349 15.1331 5.17908 15.0665 4.81848 14.7998C4.58899 14.5998 4.42517 14.3331 4.39233 13.9665C4.32678 13.2998 4.88403 12.4331 5.99854 11.3998C7.0802 10.5331 8.35852 9.69981 9.27637 9.06647ZM36.6138 30.5331C35.8927 33.2665 34.9421 35.7331 34.0898 37.4998C33.7621 36.8331 33.2704 36.0665 32.582 35.3331C31.402 33.9998 29.3042 32.4998 26.1573 32.7665C24.8135 32.8998 23.6007 33.4665 22.5518 34.3998C21.6995 35.1998 20.9456 36.3665 20.29 37.7998C19.5361 39.5331 19.0116 41.4998 18.6183 43.3331C18.225 42.2998 17.7004 41.1998 17.0122 40.0331C16.1271 38.5331 14.3243 36.5998 12.0298 34.1665L10.6202 32.6331C9.11243 30.9998 7.83411 29.3331 6.91626 27.7332C5.90015 25.9665 5.31018 24.2998 5.17908 22.8665C5.04797 21.4998 5.14624 20.4331 5.44128 19.3331C5.70349 18.3331 6.19519 17.2998 7.0802 15.7998C7.703 14.6998 8.39136 13.8331 9.04688 13.0665C10.0958 11.7665 10.8826 10.7331 10.7842 9.53314C10.6859 8.53314 9.86633 7.59981 8.26025 6.73314C7.5719 6.36647 6.78516 6.03314 6.06409 5.76648C7.60461 5.46648 9.60413 5.06647 9.60413 5.06647L9.89917 4.9998L9.99756 4.73314C10.7186 2.36647 12.3248 1.2998 13.2098 1.26648C13.8326 1.23314 16.8154 1.46648 18.9789 1.59981C18.52 2.03314 17.9628 2.59981 17.5366 3.03314C16.8483 3.73314 16.0615 3.93314 14.9143 4.19981L13.7998 4.46648L14.226 5.09981C14.4554 5.43314 15.6355 8.23314 15.996 9.7998C16.0944 10.1331 16.2255 11.2331 16.3566 12.4665C16.6188 14.5998 16.9794 17.2998 17.34 18.7665C17.8317 20.8665 18.8805 22.4998 20.6833 23.8665L21.2734 24.2998L21.3717 23.9331C21.8634 22.2998 23.2073 19.8998 24.5184 18.2998C25.6658 16.8665 27.5341 15.1331 29.6647 14.8665C31.402 14.6331 33.2375 15.2331 34.6798 16.4331C36.286 17.7665 37.3021 19.7998 37.4988 22.1331C37.7611 24.4998 37.4332 27.3331 36.6138 30.5331ZM13.2754 5.89981C13.2098 5.09981 12.4886 4.46648 11.6692 4.56647C10.8826 4.63315 10.2598 5.36647 10.358 6.19981C10.4236 6.99982 11.1448 7.63315 11.9642 7.53314C12.751 7.43314 13.3409 6.69981 13.2754 5.89981ZM12.2593 5.9998C12.292 6.23314 12.0953 6.46648 11.8658 6.4998C11.6365 6.53314 11.407 6.33315 11.3743 6.09981C11.3414 5.86647 11.5381 5.63315 11.7676 5.59981C12.0298 5.53314 12.2264 5.69981 12.2593 5.9998ZM8.42407 47.4331L8.42407 47.6665C8.42407 47.9998 8.39136 48.1665 7.76855 48.1665C7.47351 48.1665 7.0802 48.1331 6.75244 48.0331L6.65405 48.7331C6.9491 48.8331 7.34241 48.8998 7.80139 48.8998C8.98132 48.8998 9.24365 48.4665 9.24365 47.7332L9.24365 47.3331C9.24365 46.7331 9.01416 46.3331 8.22742 46.2998C7.99805 46.2998 7.86694 46.2665 7.63745 46.2665L7.63745 45.1665L9.17798 45.1665L9.17798 44.4665L6.78516 44.4665L6.78516 46.9331C7.11304 46.9331 7.37524 46.9331 7.83411 46.9665C8.35852 46.9998 8.42407 47.0998 8.42407 47.4331ZM3.54016 48.7998L6.0968 48.7998L6.0968 48.0998L5.21179 48.0998L5.21179 44.4665L4.49072 44.4665L3.40894 44.7998L3.60571 45.4998L4.42517 45.2665L4.42517 48.0998L3.57288 48.0998L3.57288 48.7998L3.54016 48.7998ZM9.89917 47.4665L9.89917 47.7332C9.89917 48.4998 10.2598 48.8665 11.3086 48.8665C12.3575 48.8665 12.7181 48.5665 12.7181 47.7332L12.7181 47.4665C12.7181 47.0998 12.587 46.8331 12.0953 46.5998C12.5215 46.3665 12.6198 46.0998 12.6198 45.7665L12.6198 45.4665C12.6198 44.7998 12.292 44.3998 11.3414 44.3998C10.3909 44.3998 10.0631 44.7998 10.0631 45.4665L10.0631 45.7665C10.0631 46.0998 10.1942 46.3665 10.5875 46.5998C10.0303 46.8331 9.89917 47.0998 9.89917 47.4665ZM11.8331 45.7665C11.8331 45.9998 11.7676 46.0998 11.3086 46.2998C10.8497 46.0998 10.7842 46.0331 10.7842 45.7665L10.7842 45.4998C10.7842 45.2331 10.8826 45.0998 11.3086 45.0998C11.7347 45.0998 11.8331 45.2665 11.8331 45.4998L11.8331 45.7665ZM10.6859 47.5331C10.6859 47.2665 10.7515 47.1331 11.3086 46.8998C11.8658 47.1331 11.9314 47.2332 11.9314 47.5331L11.9314 47.7332C11.9314 48.0665 11.7676 48.1665 11.3086 48.1665C10.8497 48.1665 10.6859 48.0331 10.6859 47.7332L10.6859 47.5331ZM14.6848 44.4665L13.1443 47.0665L13.1443 47.7998L15.0127 47.7998L15.0127 48.7665L15.7993 48.7665L15.7993 47.7998L16.3239 47.7998L16.3239 47.0998L15.7993 47.0998L15.7993 44.4331L14.6848 44.4331L14.6848 44.4665ZM13.9637 47.1331L15.0127 45.2332L15.0127 47.1331L13.9637 47.1331Z" fill="#E1001A" fill-opacity="1.000000" fill-rule="nonzero"/>
	</g>
</svg>
