<svg width="24.000000" height="24.000000" viewBox="0 0 24 24" fill="none" xmlns="http://www.w3.org/2000/svg" xmlns:xlink="http://www.w3.org/1999/xlink">
	<desc>
			Created with Pixso.
	</desc>
	<defs>
		<clipPath id="clip1_469">
			<rect id="Frame" width="24.000000" height="24.000000" fill="white" fill-opacity="0"/>
		</clipPath>
	</defs>
	<rect id="Frame" width="24.000000" height="24.000000" fill="#2E2B44" fill-opacity="0"/>
	<g clip-path="url(#clip1_469)">
		<path id="Vector" d="M12 2C14.717 2 15.056 2.01001 16.122 2.06C17.187 2.10999 17.912 2.27698 18.55 2.52502C19.21 2.77899 19.766 3.12299 20.322 3.67798C20.8305 4.17792 21.2239 4.78259 21.475 5.45001C21.722 6.08698 21.89 6.81299 21.94 7.87799C21.987 8.94397 22 9.28302 22 12C22 14.717 21.99 15.056 21.94 16.122C21.89 17.187 21.722 17.912 21.475 18.55C21.2247 19.2178 20.8311 19.8226 20.322 20.322C19.822 20.8303 19.2173 21.2238 18.55 21.475C17.913 21.722 17.187 21.89 16.122 21.94C15.056 21.987 14.717 22 12 22C9.28299 22 8.944 21.99 7.87799 21.94C6.81299 21.89 6.08801 21.722 5.45001 21.475C4.78232 21.2245 4.17752 20.8309 3.67801 20.322C3.1694 19.8222 2.77594 19.2175 2.52499 18.55C2.27701 17.913 2.10999 17.187 2.06 16.122C2.013 15.056 2 14.717 2 12C2 9.28302 2.01001 8.94397 2.06 7.87799C2.10999 6.81201 2.27701 6.08801 2.52499 5.45001C2.77524 4.78217 3.16879 4.17731 3.67801 3.67798C4.17767 3.16925 4.78244 2.77576 5.45001 2.52502C6.08801 2.27698 6.81201 2.10999 7.87799 2.06C8.944 2.013 9.28299 2 12 2ZM12 7C10.6739 7 9.40216 7.52679 8.46448 8.46448C7.52679 9.40216 7 10.6739 7 12C7 13.3261 7.52679 14.5978 8.46448 15.5355C9.40216 16.4732 10.6739 17 12 17C13.3261 17 14.5978 16.4732 15.5355 15.5355C16.4732 14.5978 17 13.3261 17 12C17 10.6739 16.4732 9.40216 15.5355 8.46448C14.5978 7.52679 13.3261 7 12 7ZM18.5 6.75C18.5 6.41846 18.3683 6.10052 18.1339 5.86609C17.8995 5.63171 17.5815 5.5 17.25 5.5C16.9185 5.5 16.6005 5.63171 16.3661 5.86609C16.1317 6.10052 16 6.41846 16 6.75C16 7.08154 16.1317 7.39948 16.3661 7.63391C16.6005 7.86829 16.9185 8 17.25 8C17.5815 8 17.8995 7.86829 18.1339 7.63391C18.3683 7.39948 18.5 7.08154 18.5 6.75ZM12 9C12.7957 9 13.5587 9.31604 14.1213 9.87866C14.6839 10.4413 15 11.2043 15 12C15 12.7957 14.6839 13.5587 14.1213 14.1213C13.5587 14.684 12.7957 15 12 15C11.2043 15 10.4413 14.684 9.87869 14.1213C9.31607 13.5587 9 12.7957 9 12C9 11.2043 9.31607 10.4413 9.87869 9.87866C10.4413 9.31604 11.2043 9 12 9Z" fill="#FFFFFF" fill-opacity="1.000000" fill-rule="nonzero"/>
	</g>
</svg>
