<svg width="225.000000" height="21.000000" viewBox="0 0 225 21" fill="none" xmlns="http://www.w3.org/2000/svg" xmlns:xlink="http://www.w3.org/1999/xlink">
	<desc>
			Created with Pixso.
	</desc>
	<defs>
		<clipPath id="clip1_588">
			<rect id="royal-talens-bv-logo-vector 1" width="225.000000" height="21.000000" fill="white" fill-opacity="0"/>
		</clipPath>
	</defs>
	<rect id="royal-talens-bv-logo-vector 1" width="225.000000" height="21.000000" fill="#FFFFFF" fill-opacity="0"/>
	<g clip-path="url(#clip1_588)">
		<path id="Vector" d="M13.5516 20.1446L11.0433 20.8057L5.57739 12.5613L2.50751 12.4835L2.65729 20.4557L0.186401 20.6502L0.186401 0.505722L4.97839 0.350174C7.14978 0.272385 8.83447 0.777954 9.99506 1.78906C11.1556 2.83907 11.7546 4.23906 11.7546 5.91129C11.7546 7.03906 11.3802 8.12796 10.6689 9.21684C9.95764 10.3446 8.94678 11.2002 7.59906 11.7446L7.59906 11.8224L13.5516 20.1446ZM2.61987 1.94461L2.47009 11.1224L6.21387 10.9668C7.56158 10.578 9.17145 8.94461 9.17145 6.53349C9.17145 3.85017 7.48676 2.10017 4.67889 2.0224L2.61987 1.94461ZM25.1947 20.8057C19.8037 20.8057 15.5732 16.6446 15.5732 10.4224C15.5732 4.70572 20.3653 0.0390625 25.7563 0.0390625C31.1848 0.0390625 35.4152 4.23906 35.4152 10.4613C35.3777 16.2168 30.3611 20.8057 25.1947 20.8057ZM25.5691 19.1335C29.7996 19.1335 32.7571 15.8668 32.7571 10.6557C32.7571 5.44461 29.3129 1.71127 25.3819 1.71127C21.1889 1.71127 18.1939 4.93906 18.1939 10.228C18.1939 15.3224 21.713 19.1335 25.5691 19.1335ZM46.01 20.4557L43.5391 20.6502L43.5391 11.0835L36.2388 0.70018L38.8969 0.350174L45.0367 9.64461L51.3636 0.350174L53.4976 0.70018L45.9726 11.2002L46.01 20.4557ZM70.2696 20.4168L67.6864 20.6891L65.7771 15.3613L56.4551 15.5557L54.5458 20.6502L52.4119 20.4168L60.7604 0.350174L61.8835 0.0779419L70.2696 20.4168ZM61.0225 3.81128L57.1664 13.7668L65.1781 13.9224L61.0225 3.81128ZM78.8428 20.4557L73.7139 20.6113L73.7139 0.544617L76.1848 0.350174L76.0724 8.86684L76.1473 18.9002L84.3835 18.5891L84.1964 20.4946L78.8428 20.4557ZM135.785 20.4557L133.315 20.6502L133.315 2.0224L125.827 2.29462L126.014 0.350174L134.325 0.350174L143.048 0.155731L142.861 2.21684L135.823 1.94461L135.673 9.33351L135.785 20.4557ZM159.633 20.4168L157.05 20.6891L155.141 15.3613L145.819 15.5557L143.909 20.6502L141.775 20.4168L150.124 0.350174L151.247 0.0779419L159.633 20.4168ZM150.386 3.81128L146.53 13.7668L154.542 13.9224L150.386 3.81128ZM168.206 20.4557L163.077 20.6113L163.077 0.544617L165.548 0.350174L165.436 8.82796L165.511 18.8613L173.747 18.5502L173.56 20.4557L168.206 20.4557ZM180.523 20.4557L177.266 20.6113L177.266 0.505722L181.909 0.350174L187.674 0.350174L187.487 2.29462L179.737 1.98351L179.55 9.60573L186.289 9.41129L185.877 11.3168L179.513 11.1224L179.7 18.8613L188.31 18.5891L188.123 20.4946L180.523 20.4946L180.523 20.4557ZM194.413 20.4557L192.204 20.6502L192.391 0.544617L194.188 0.350174L206.131 15.9057L205.906 0.544617L208.115 0.350174L207.853 20.4557L207.029 20.6113L194.151 4.35573L194.413 20.4557ZM217.849 20.6502C216.726 20.6502 215.602 20.4168 214.517 19.9502C213.431 19.4835 212.607 18.9002 212.008 18.3168L213.206 16.9557C214.704 18.1224 216.314 19.0168 218.485 19.0168C220.881 19.0168 222.528 17.8891 222.528 15.6724C222.528 14.5057 222.117 13.6113 221.368 13.0668C220.619 12.5224 219.571 11.978 218.298 11.4335C215.64 10.3446 212.795 9.21684 212.795 5.5224C212.795 2.56685 215.378 0.194611 218.897 0.194611C220.731 0.194611 222.641 0.739059 223.764 1.59462L223.315 3.34462C222.191 2.80017 220.02 1.98351 218.373 1.98351C216.538 1.98351 215.003 2.87794 215.003 4.82239C215.003 6.06683 215.415 6.96127 216.164 7.50572C216.913 8.08905 217.961 8.63351 219.196 9.17795C221.817 10.3446 224.737 11.2779 224.737 14.8946C224.775 18.7057 221.443 20.6502 217.849 20.6502Z" fill="#333333" fill-opacity="1.000000" fill-rule="nonzero"/>
		<path id="Vector" d="M95.2787 0.0776367L95.2787 20.5721L115.008 20.5721L115.008 0.0776367L95.2787 0.0776367ZM105.125 19.7165C100.108 19.7165 96.0649 15.5165 96.0649 10.3054C96.0649 5.0943 100.108 0.894302 105.125 0.894302C110.141 0.894302 114.185 5.0943 114.185 10.3054C114.185 15.5165 110.141 19.7165 105.125 19.7165ZM97.188 11.9776C97.3752 12.911 98.2737 15.1665 99.8087 14.6221C100.932 14.1943 101.007 13.1054 101.231 11.861C101.418 10.6943 101.718 8.47765 102.092 8.01097C102.13 7.97209 102.092 7.9332 102.055 7.9332C101.156 7.97208 100.557 10.0721 100.22 11.0443C99.584 12.9499 97.6373 13.1054 97.3003 11.9388C97.3003 11.9388 97.188 11.9388 97.188 11.9776ZM112.912 8.67207C112.687 8.16652 112.537 7.97208 112.313 7.50542C112.5 6.96097 112.725 6.22209 112.687 5.91098C112.537 4.58876 110.815 5.98874 111.19 7.69986C111.302 8.16652 111.414 8.51653 111.489 8.82764C110.965 9.91653 110.74 9.72208 110.778 9.33319C110.815 9.06097 110.853 8.51653 110.853 8.51653C111.003 7.46652 110.478 7.38875 110.141 7.62209C109.954 7.73875 109.692 8.12764 109.58 8.36098L109.692 7.85542L108.756 8.24431L108.457 9.83875C108.082 10.7332 107.671 10.8887 107.408 10.8499C107.334 10.811 107.259 10.7721 107.184 10.7332C108.045 9.95541 108.344 9.29431 108.27 8.82764C108.195 8.32208 107.82 8.32208 107.558 8.39986C106.884 8.63319 106.323 9.33319 106.173 10.3054C106.136 10.6165 106.136 10.9276 106.21 11.161C105.611 12.1332 105.574 11.5887 105.649 11.1999C105.836 10.3054 106.435 6.61098 106.435 6.61098L105.499 6.99986C105.499 6.99986 104.938 10.2276 104.713 11.4721C104.264 12.5999 104.151 12.1721 104.226 11.7832C104.376 10.8887 104.601 9.72208 104.601 9.72208L103.702 10.0721C103.702 10.0721 103.627 10.3443 103.552 10.811C103.44 10.461 103.215 10.2276 102.916 10.1888C102.354 10.111 101.755 10.8887 101.568 11.8221C101.381 12.7943 101.681 13.6499 102.242 13.6888C102.654 13.7276 103.066 13.3776 103.328 12.8332C103.478 13.1832 103.852 13.1443 104.077 12.9887C104.301 12.8332 104.526 12.4443 104.676 12.1332C104.75 12.5999 105.125 12.5999 105.387 12.4443C105.799 12.211 106.173 11.6665 106.36 11.4332C106.51 11.7054 106.772 11.861 107.072 11.8221C107.483 11.7832 107.97 11.2387 108.344 10.6165L108.195 11.3554L109.131 10.9665L109.468 9.17764C109.917 8.04987 110.067 8.43875 110.029 8.78876C110.029 8.78876 109.992 9.09987 109.917 9.60542C109.804 10.6554 110.254 10.6943 110.591 10.4999C111.077 10.1888 111.377 9.60541 111.639 9.06097C111.826 9.52763 112.051 9.91653 112.238 10.4999C113.586 14.4276 108.494 14.0387 106.473 14.1165C104.601 14.1943 104.413 15.8665 104.226 17.1499C111.19 17.2276 114.334 11.8999 112.912 8.67207ZM103.403 11.6665C103.365 12.1332 103.066 12.6387 102.804 12.6387C102.542 12.6387 102.354 12.2499 102.429 11.7054C102.504 11.2388 102.729 10.811 102.991 10.811C103.253 10.811 103.44 11.1999 103.403 11.6665ZM107.072 10.4221C107.034 10.3054 107.034 10.1888 107.034 10.0332C107.072 9.56653 107.296 9.06097 107.596 8.9832C107.708 8.94431 107.82 8.9832 107.82 9.17764C107.82 9.60542 107.408 10.111 107.072 10.4221ZM112.163 7.15541C112.126 7.11653 112.126 7.07764 112.126 7.03876C111.564 5.63875 112.313 5.44431 112.388 6.02763C112.388 6.33875 112.313 6.76653 112.163 7.15541ZM106.098 3.14986C105.986 4.04431 105.911 5.91096 104.226 6.1832C101.456 6.64986 97.7496 7.8943 97.1506 10.6943C97.1506 10.7332 97.0383 10.7332 97.0383 10.7332C96.9634 6.33875 100.745 3.14986 106.098 3.14986Z" fill="#FF0000" fill-opacity="1.000000" fill-rule="nonzero"/>
	</g>
</svg>
