<svg width="20.384003" height="16.573425" viewBox="0 0 20.384 16.5734" fill="none" xmlns="http://www.w3.org/2000/svg" xmlns:xlink="http://www.w3.org/1999/xlink">
	<desc>
			Created with Pixso.
	</desc>
	<defs/>
	<path d="M20.383 1.96747C19.6196 2.30511 18.81 2.52692 17.981 2.62543C18.8547 2.10291 19.5087 1.28046 19.821 0.311462C19.001 0.799438 18.102 1.14148 17.165 1.32648C16.5356 0.653015 15.7014 0.206421 14.792 0.0560303C13.8825 -0.0943604 12.9489 0.0599365 12.1363 0.494873C11.3236 0.929871 10.6774 1.62115 10.2981 2.46124C9.91882 3.30133 9.82776 4.24323 10.039 5.14044C8.3761 5.05713 6.74933 4.625 5.26428 3.87213C3.77924 3.11926 2.46912 2.0625 1.41901 0.770447C1.0473 1.40887 0.851929 2.1347 0.853027 2.87347C0.853027 4.32343 1.591 5.60443 2.71301 6.35443C2.04901 6.33356 1.39966 6.15424 0.81897 5.83142L0.81897 5.88342C0.819214 6.84912 1.15338 7.7851 1.76483 8.53253C2.37634 9.27997 3.22748 9.79291 4.17401 9.98444C3.55762 10.1515 2.91132 10.1761 2.284 10.0565C2.55084 10.8877 3.07098 11.6146 3.77161 12.1356C4.47217 12.6565 5.31812 12.9453 6.19098 12.9614C5.32349 13.6428 4.3302 14.1464 3.26788 14.4436C2.20557 14.7408 1.09515 14.8257 0 14.6934C1.91168 15.9229 4.13708 16.5756 6.40997 16.5734C14.103 16.5734 18.31 10.2004 18.31 4.67346C18.31 4.49347 18.305 4.31146 18.297 4.13342C19.1159 3.54163 19.8226 2.80847 20.384 1.96844L20.383 1.96747Z" fill="#FFFFFF" fill-opacity="1.000000" fill-rule="nonzero"/>
</svg>
