<svg width="24.000000" height="24.000000" viewBox="0 0 24 24" fill="none" xmlns="http://www.w3.org/2000/svg" xmlns:xlink="http://www.w3.org/1999/xlink">
	<desc>
			Created with Pixso.
	</desc>
	<defs>
		<clipPath id="clip1_472">
			<rect id="Frame" width="24.000000" height="24.000000" fill="white" fill-opacity="0"/>
		</clipPath>
	</defs>
	<rect id="Frame" width="24.000000" height="24.000000" fill="#2E2B44" fill-opacity="0"/>
	<g clip-path="url(#clip1_472)">
		<path id="Vector" d="M21.543 6.49799C22 8.28003 22 12 22 12C22 12 22 15.72 21.543 17.502C21.289 18.487 20.546 19.262 19.605 19.524C17.896 20 12 20 12 20C12 20 6.10699 20 4.39499 19.524C3.45001 19.258 2.70801 18.484 2.457 17.502C2 15.72 2 12 2 12C2 12 2 8.28003 2.457 6.49799C2.711 5.513 3.45401 4.73798 4.39499 4.47601C6.10699 4 12 4 12 4C12 4 17.896 4 19.605 4.47601C20.55 4.742 21.292 5.51599 21.543 6.49799ZM10 15.5L16 12L10 8.5L10 15.5Z" fill="#FFFFFF" fill-opacity="1.000000" fill-rule="nonzero"/>
	</g>
</svg>
